<svg width="30" height="30" viewBox="0 0 30 30" fill="none" xmlns="http://www.w3.org/2000/svg">
<path d="M15 16.5C15.8975 16.5 16.7744 16.7683 17.5182 17.2704C18.262 17.7726 18.8387 18.4857 19.1741 19.3182C19.5095 20.1506 19.5884 21.0643 19.4006 21.9419C19.2127 22.8194 18.7668 23.6208 18.12 24.243L15.255 27H19.5V30H10.5L10.4985 27.414L16.0395 22.0815C16.2183 21.9096 16.3517 21.6961 16.4277 21.4601C16.5038 21.2241 16.5201 20.9728 16.4753 20.7289C16.4305 20.485 16.3259 20.2561 16.1708 20.0625C16.0158 19.8689 15.8152 19.7168 15.587 19.6197C15.3588 19.5227 15.1101 19.4837 14.8632 19.5063C14.6162 19.529 14.3787 19.6125 14.1719 19.7494C13.9652 19.8863 13.7955 20.0723 13.6783 20.2908C13.561 20.5093 13.4998 20.7535 13.5 21.0015H10.5C10.4998 20.4104 10.6161 19.8251 10.8421 19.279C11.0682 18.7328 11.3996 18.2366 11.8175 17.8186C12.2354 17.4005 12.7315 17.0689 13.2776 16.8427C13.8236 16.6164 14.4089 16.5 15 16.5ZM24 16.5V22.5H27V16.5H30V30H27V25.5H21V16.5H24ZM3 15C2.99815 16.7994 3.40174 18.5761 4.1808 20.198C4.95985 21.82 6.09434 23.2457 7.5 24.369V27.993C5.21892 26.6767 3.32477 24.7828 2.00816 22.5019C0.691552 20.2211 -0.00106718 17.6336 1.2342e-06 15H3ZM15 4.22743e-06C22.7775 4.22743e-06 29.1735 5.9205 29.925 13.5H26.907C26.6024 11.0812 25.5683 8.81252 23.9425 6.99592C22.3166 5.17931 20.1761 3.90093 17.8057 3.3309C15.4354 2.76087 12.9477 2.92624 10.6736 3.80498C8.3996 4.68373 6.4471 6.23418 5.076 8.25H9V11.25H1.2342e-06V2.25H3V6C4.39599 4.13577 6.2075 2.62277 8.29061 1.58122C10.3737 0.539663 12.671 -0.00174546 15 4.22743e-06Z" fill="white"/>
</svg>
