<svg width="43" height="43" viewBox="0 0 43 43" fill="none" xmlns="http://www.w3.org/2000/svg">
<g clip-path="url(#clip0_627_251)">
<path d="M36.2335 35.4389H38.0528L36.3095 42.151H38.9259L38.7333 43.0002H34.2242L36.2335 35.4389ZM30.568 35.4389H34.9432L34.7628 36.2822H32.1446L31.5385 38.7091H33.7255L33.4799 39.5665H31.3038L30.6194 42.151H33.3003L33.1057 43.0002H28.552L30.568 35.4389ZM23.9012 42.9983L25.6608 36.2803H23.7641L23.9872 35.437H29.5868L29.3493 36.2804H27.4845L25.7061 42.9984L23.9012 42.9983ZM20.2341 35.4389C18.3087 37.8918 16.7403 40.4204 15.417 43.0002H17.3215L18.2672 41.1149H20.6006C20.6228 41.7624 20.5833 42.3748 20.5388 43.0002H22.4401C22.4862 40.3639 22.2515 37.8217 21.601 35.4389L20.2341 35.4389ZM20.3656 37.5513C20.4563 38.4432 20.5532 39.3286 20.6007 40.2639H18.6851C19.1951 39.3836 19.7904 38.476 20.3656 37.551V37.5513ZM10.2366 35.4389H11.4278L13.6121 39.913L14.7962 35.4389H16.4885L14.4923 43.0003H13.3093L11.1244 38.5677L9.93004 43.0003H8.25447L10.2366 35.4389ZM4.99414 35.4389C3.06874 37.8918 1.50039 40.4204 0.177063 43.0002H2.0816L3.02725 41.1149H5.36064C5.38286 41.7624 5.3433 42.3748 5.29879 43.0002H7.20004C7.24619 40.3639 7.01148 37.8217 6.36104 35.4389L4.99414 35.4389ZM5.12572 37.5513C5.21638 38.4432 5.3132 39.3286 5.36079 40.2639H3.44513C3.95519 39.3836 4.55052 38.476 5.12572 37.551V37.5513Z" fill="white"/>
<path d="M21.2638 24.0695C21.2638 29.3601 16.9751 33.6488 11.6846 33.6488C6.39404 33.6488 2.10522 29.3601 2.10522 24.0695C2.10522 18.779 6.39404 14.4902 11.6846 14.4902C16.9751 14.4902 21.2638 18.779 21.2638 24.0695Z" fill="white"/>
<path d="M27.6972 14.7899C26.884 3.82624 16.2088 2.9203 7.11627 9.82524C7.11627 9.82524 16.5442 -0.000976562 27.3817 -0.000976562C31.7605 -0.000976562 35.8194 1.60106 38.538 4.78464C41.2565 7.96821 42.8226 12.3962 42.8226 18.272C42.8226 24.1478 41.3868 28.749 39.4013 33.6489H18.933C23.4937 28.9053 27.9723 22.47 27.6971 14.7898L27.6972 14.7899Z" fill="white"/>
</g>
<defs>
<clipPath id="clip0_627_251">
<rect width="43" height="43" fill="white"/>
</clipPath>
</defs>
</svg>
