<svg width="15" height="30" viewBox="0 0 15 30" fill="none" xmlns="http://www.w3.org/2000/svg">
<path d="M7.125 23.475L9.2625 21.375L7.8375 19.95C7.7125 19.825 7.625 19.694 7.575 19.557C7.525 19.42 7.5 19.276 7.5 19.125C7.5 18.95 7.525 18.794 7.575 18.657C7.625 18.52 7.7125 18.3885 7.8375 18.2625L9.2625 16.8375C9.6625 16.4375 9.969 15.9875 10.182 15.4875C10.395 14.9875 10.501 14.4625 10.5 13.9125C10.5 13.3375 10.394 12.794 10.182 12.282C9.97 11.77 9.6635 11.3135 9.2625 10.9125L7.8375 9.4875L5.7375 11.625L7.125 13.0125C7.25 13.1375 7.344 13.269 7.407 13.407C7.47 13.545 7.501 13.701 7.5 13.875C7.5 14.025 7.4685 14.169 7.4055 14.307C7.3425 14.445 7.249 14.576 7.125 14.7L5.7375 16.125C5.3375 16.525 5.031 16.975 4.818 17.475C4.605 17.975 4.499 18.5125 4.5 19.0875C4.5 19.6625 4.606 20.2065 4.818 20.7195C5.03 21.2325 5.3365 21.6885 5.7375 22.0875L7.125 23.475ZM0 30V3H4.5V0H10.5V3H15V30H0ZM3 27H12V6H3V27Z" fill="white"/>
</svg>
