<svg width="19" height="20" viewBox="0 0 19 20" fill="none" xmlns="http://www.w3.org/2000/svg">
<g clip-path="url(#clip0_613_11)">
<path d="M18.6086 10.0261C18.6086 4.85518 14.4426 0.663574 9.30426 0.663574C4.16361 0.664737 -0.00241089 4.85518 -0.00241089 10.0272C-0.00241089 14.6992 3.40065 18.5721 7.84813 19.2746V12.7325H5.48715V10.0272H7.85046V7.96284C7.85046 5.61698 9.2403 4.32135 11.3652 4.32135C12.384 4.32135 13.4482 4.50394 13.4482 4.50394V6.80677H12.2747C11.1198 6.80677 10.7592 7.52902 10.7592 8.26988V10.0261H13.3389L12.9271 12.7313H10.7581V19.2734C15.2055 18.571 18.6086 14.698 18.6086 10.0261Z" fill="white"/>
</g>
<defs>
<clipPath id="clip0_613_11">
<rect width="18.6087" height="18.6087" fill="white" transform="translate(0 0.664551)"/>
</clipPath>
</defs>
</svg>
