<svg width="20" height="25" viewBox="0 0 20 25" fill="none" xmlns="http://www.w3.org/2000/svg">
<path d="M10 12.5C10.6875 12.5 11.2762 12.255 11.7663 11.765C12.2563 11.275 12.5008 10.6867 12.5 10C12.5 9.3125 12.255 8.72375 11.765 8.23375C11.275 7.74375 10.6867 7.49917 10 7.5C9.3125 7.5 8.72375 7.745 8.23375 8.235C7.74375 8.725 7.49917 9.31333 7.5 10C7.5 10.6875 7.745 11.2762 8.235 11.7663C8.725 12.2563 9.31333 12.5008 10 12.5ZM10 21.6875C12.5417 19.3542 14.4271 17.2342 15.6562 15.3275C16.8854 13.4208 17.5 11.7283 17.5 10.25C17.5 7.97917 16.7758 6.12 15.3275 4.6725C13.8792 3.225 12.1033 2.50083 10 2.5C7.89583 2.5 6.11958 3.22417 4.67125 4.6725C3.22292 6.12083 2.49917 7.98 2.5 10.25C2.5 11.7292 3.11458 13.4221 4.34375 15.3287C5.57292 17.2354 7.45833 19.355 10 21.6875ZM10 25C6.64583 22.1458 4.14083 19.495 2.485 17.0475C0.829167 14.6 0.000833333 12.3342 0 10.25C0 7.125 1.00542 4.63542 3.01625 2.78125C5.02708 0.927083 7.355 0 10 0C12.6458 0 14.9742 0.927083 16.985 2.78125C18.9958 4.63542 20.0008 7.125 20 10.25C20 12.3333 19.1717 14.5992 17.515 17.0475C15.8583 19.4958 13.3533 22.1467 10 25Z" fill="white"/>
</svg>
