<svg width="25" height="23" viewBox="0 0 25 23" fill="none" xmlns="http://www.w3.org/2000/svg">
<path d="M19.7547 23C21.8422 23 23.4375 21.1025 23.4375 18.8929V6.57143H1.5625V18.8929C1.5625 21.1025 3.15781 23 5.24531 23H19.7547ZM8.59375 9.85714H16.4062C16.6135 9.85714 16.8122 9.94369 16.9587 10.0977C17.1052 10.2518 17.1875 10.4607 17.1875 10.6786C17.1875 10.8964 17.1052 11.1054 16.9587 11.2594C16.8122 11.4135 16.6135 11.5 16.4062 11.5H8.59375C8.38655 11.5 8.18784 11.4135 8.04132 11.2594C7.89481 11.1054 7.8125 10.8964 7.8125 10.6786C7.8125 10.4607 7.89481 10.2518 8.04132 10.0977C8.18784 9.94369 8.38655 9.85714 8.59375 9.85714ZM1.25 0C0.918479 0 0.600537 0.138469 0.366117 0.384945C0.131696 0.631422 0 0.965715 0 1.31429L0 3.28571C0 3.63428 0.131696 3.96858 0.366117 4.21505C0.600537 4.46153 0.918479 4.6 1.25 4.6H23.75C24.0815 4.6 24.3995 4.46153 24.6339 4.21505C24.8683 3.96858 25 3.63428 25 3.28571V1.31429C25 0.965715 24.8683 0.631422 24.6339 0.384945C24.3995 0.138469 24.0815 0 23.75 0H1.25Z" fill="#006DB6"/>
</svg>
