<svg width="20" height="20" viewBox="0 0 20 20" fill="none" xmlns="http://www.w3.org/2000/svg">
<g clip-path="url(#clip0_613_9)">
<path d="M12.7699 9.63643C12.7699 10.4032 12.4653 11.1385 11.9231 11.6807C11.381 12.2228 10.6456 12.5274 9.8789 12.5274C9.11216 12.5274 8.37682 12.2228 7.83465 11.6807C7.29249 11.1385 6.9879 10.4032 6.9879 9.63643C6.9879 9.47165 7.00525 9.31072 7.03512 9.1546H6.02424V13.0064C6.02424 13.2743 6.24106 13.4911 6.50896 13.4911H13.2498C13.3782 13.4908 13.5012 13.4397 13.5919 13.3488C13.6826 13.2579 13.7336 13.1348 13.7336 13.0064V9.1546H12.7227C12.7525 9.31072 12.7699 9.47165 12.7699 9.63643ZM9.8789 11.5638C10.1321 11.5637 10.3827 11.5138 10.6166 11.4168C10.8505 11.3199 11.063 11.1778 11.2419 10.9988C11.4209 10.8197 11.5628 10.6072 11.6597 10.3732C11.7565 10.1393 11.8063 9.88863 11.8062 9.63547C11.8062 9.38231 11.7562 9.13163 11.6593 8.89777C11.5624 8.6639 11.4203 8.45141 11.2412 8.27244C11.0622 8.09347 10.8496 7.95153 10.6157 7.8547C10.3818 7.75788 10.1311 7.70808 9.87793 7.70814C9.36664 7.70827 8.87635 7.9115 8.51491 8.27312C8.15346 8.63475 7.95048 9.12515 7.9506 9.63643C7.95073 10.1477 8.15396 10.638 8.51559 10.9995C8.87721 11.3609 9.36761 11.5639 9.8789 11.5638ZM12.1917 7.61274H13.3471C13.4239 7.61274 13.4975 7.58231 13.5519 7.52812C13.6063 7.47393 13.6369 7.4004 13.6372 7.32364V6.16821C13.6372 6.09128 13.6066 6.0175 13.5522 5.9631C13.4978 5.9087 13.4241 5.87814 13.3471 5.87814H12.1917C12.1148 5.87814 12.041 5.9087 11.9866 5.9631C11.9322 6.0175 11.9016 6.09128 11.9016 6.16821V7.32364C11.9026 7.48264 12.0327 7.61274 12.1917 7.61274ZM9.8789 0.385254C7.42533 0.385254 5.07226 1.35993 3.33732 3.09486C1.60239 4.82979 0.627716 7.18287 0.627716 9.63643C0.627716 12.09 1.60239 14.4431 3.33732 16.178C5.07226 17.9129 7.42533 18.8876 9.8789 18.8876C11.0938 18.8876 12.2968 18.6483 13.4192 18.1834C14.5416 17.7185 15.5614 17.0371 16.4205 16.178C17.2795 15.319 17.961 14.2991 18.4259 13.1767C18.8908 12.0543 19.1301 10.8513 19.1301 9.63643C19.1301 8.42155 18.8908 7.21857 18.4259 6.09616C17.961 4.97376 17.2795 3.95391 16.4205 3.09486C15.5614 2.23581 14.5416 1.55437 13.4192 1.08946C12.2968 0.624543 11.0938 0.385254 9.8789 0.385254ZM14.6972 13.3841C14.6972 13.9729 14.2154 14.4548 13.6266 14.4548H6.1312C5.54241 14.4548 5.06057 13.9729 5.06057 13.3841V5.88874C5.06057 5.29994 5.54241 4.81811 6.1312 4.81811H13.6266C14.2154 4.81811 14.6972 5.29994 14.6972 5.88874V13.3841Z" fill="white"/>
</g>
<defs>
<clipPath id="clip0_613_9">
<rect width="19.2733" height="19.2733" fill="white" transform="translate(0.242249)"/>
</clipPath>
</defs>
</svg>
