<svg width="33" height="25" viewBox="0 0 33 25" fill="none" xmlns="http://www.w3.org/2000/svg">
<path d="M5.5 2.77778V16.6667H12.375V11.1111C12.375 10.3744 12.6647 9.66786 13.1805 9.14693C13.6962 8.62599 14.3957 8.33333 15.125 8.33333H22C22.7293 8.33333 23.4288 8.62599 23.9445 9.14693C24.4603 9.66786 24.75 10.3744 24.75 11.1111V16.6667H27.5V2.77778H5.5ZM0 22.2222V19.4444H5.5C4.77065 19.4444 4.07118 19.1518 3.55546 18.6309C3.03973 18.1099 2.75 17.4034 2.75 16.6667V2.77778C2.75 2.04107 3.03973 1.33453 3.55546 0.813592C4.07118 0.292658 4.77065 0 5.5 0H27.5C28.2293 0 28.9288 0.292658 29.4445 0.813592C29.9603 1.33453 30.25 2.04107 30.25 2.77778V16.6667C30.25 17.4034 29.9603 18.1099 29.4445 18.6309C28.9288 19.1518 28.2293 19.4444 27.5 19.4444H33V22.2222H24.75C24.75 22.9589 24.4603 23.6655 23.9445 24.1864C23.4288 24.7073 22.7293 25 22 25H15.125C14.3957 25 13.6962 24.7073 13.1805 24.1864C12.6647 23.6655 12.375 22.9589 12.375 22.2222H0ZM15.8125 22.2222C15.6302 22.2222 15.4553 22.2954 15.3264 22.4256C15.1974 22.5559 15.125 22.7325 15.125 22.9167C15.125 23.1008 15.1974 23.2775 15.3264 23.4077C15.4553 23.5379 15.6302 23.6111 15.8125 23.6111C15.9948 23.6111 16.1697 23.5379 16.2986 23.4077C16.4276 23.2775 16.5 23.1008 16.5 22.9167C16.5 22.7325 16.4276 22.5559 16.2986 22.4256C16.1697 22.2954 15.9948 22.2222 15.8125 22.2222ZM21.3125 22.2222C21.1302 22.2222 20.9553 22.2954 20.8264 22.4256C20.6974 22.5559 20.625 22.7325 20.625 22.9167C20.625 23.1008 20.6974 23.2775 20.8264 23.4077C20.9553 23.5379 21.1302 23.6111 21.3125 23.6111C21.4948 23.6111 21.6697 23.5379 21.7986 23.4077C21.9276 23.2775 22 23.1008 22 22.9167C22 22.7325 21.9276 22.5559 21.7986 22.4256C21.6697 22.2954 21.4948 22.2222 21.3125 22.2222ZM17.875 22.2222V23.6111H19.25V22.2222H17.875ZM15.125 11.1111V20.8333H22V11.1111H15.125Z" fill="white"/>
</svg>
