<svg width="30" height="30" viewBox="0 0 30 30" fill="none" xmlns="http://www.w3.org/2000/svg">
<path d="M10.5943 26.0795C8.21712 24.9886 6.28021 23.3409 4.78353 21.1364C3.28685 18.9318 2.53805 16.4432 2.53713 13.6705C2.53713 13.0795 2.57142 12.5 2.63999 11.9318C2.70856 11.3636 2.81142 10.8068 2.94856 10.2614L1.37142 11.1818L0 8.82955L6.54855 5.07955L10.32 11.5568L7.91997 12.9205L6.06855 9.71591C5.81712 10.3295 5.62878 10.9659 5.50353 11.625C5.37827 12.2841 5.31518 12.9659 5.31427 13.6705C5.31427 15.875 5.91998 17.8809 7.13141 19.6882C8.34283 21.4955 9.95425 22.8305 11.9657 23.6932L10.5943 26.0795ZM21.0856 9.54545V6.81818H24.8228C23.7714 5.52273 22.5028 4.51727 21.0171 3.80182C19.5314 3.08636 17.9542 2.72818 16.2857 2.72727C15.0285 2.72727 13.84 2.92045 12.72 3.30682C11.6 3.69318 10.5714 4.23864 9.63426 4.94318L8.26283 2.55682C9.40568 1.76136 10.6459 1.13636 11.9835 0.681818C13.3211 0.227273 14.7437 0 16.2514 0C18.0571 0 19.7887 0.335454 21.4463 1.00636C23.1039 1.67727 24.5837 2.64864 25.8856 3.92045V2.04545H28.6285V9.54545H21.0856ZM20.1942 30L13.6457 26.25L17.4171 19.7727L19.7828 21.1364L17.8285 24.4773C20.5256 24.0909 22.7716 22.8805 24.5663 20.8459C26.3611 18.8114 27.258 16.42 27.2571 13.6718C27.2571 13.4218 27.2511 13.1832 27.2392 12.9559C27.2273 12.7286 27.199 12.5014 27.1542 12.2741H29.9313C29.9542 12.5014 29.9716 12.7232 29.9834 12.9395C29.9953 13.1559 30.0008 13.3882 29.9999 13.6364C29.9999 16.7045 29.0797 19.4491 27.2392 21.87C25.3988 24.2909 23.0047 25.9214 20.0571 26.7614L21.5656 27.6477L20.1942 30Z" fill="white"/>
</svg>
