<svg width="24" height="25" viewBox="0 0 24 25" fill="none" xmlns="http://www.w3.org/2000/svg">
<path d="M10.1067 13.7487V3.74964C10.1067 1.67484 8.41419 0 6.31756 0C4.22092 0 2.52846 1.67484 2.52846 3.74964V13.7487C-0.262839 15.8235 -0.831203 19.7356 1.26543 22.4979C3.36206 25.2601 7.31535 25.8225 10.1067 23.7477C12.898 21.6729 13.4663 17.7608 11.3697 14.9986C11.0142 14.5218 10.5885 14.1005 10.1067 13.7487ZM6.31756 2.49976C7.01222 2.49976 7.58059 3.06221 7.58059 3.74964V7.49929H5.05452V3.74964C5.05452 3.06221 5.62289 2.49976 6.31756 2.49976ZM18.0006 16.4484L14.5273 12.6988L15.9924 11.2489L18.0006 13.2362L22.5349 8.74917L24 10.5115L18.0006 16.4484Z" fill="white"/>
</svg>
