<svg width="22" height="25" viewBox="0 0 22 25" fill="none" xmlns="http://www.w3.org/2000/svg">
<path d="M5.50079 14.0625C5.29237 14.0625 5.09249 14.1448 4.94512 14.2913C4.79775 14.4378 4.71496 14.6365 4.71496 14.8438V17.9688C4.71496 18.176 4.79775 18.3747 4.94512 18.5212C5.09249 18.6677 5.29237 18.75 5.50079 18.75C5.7092 18.75 5.90908 18.6677 6.05645 18.5212C6.20382 18.3747 6.28661 18.176 6.28661 17.9688V17.7094H6.81154C7.29798 17.7094 7.7645 17.5173 8.10846 17.1753C8.45243 16.8333 8.64566 16.3695 8.64566 15.8859C8.64566 15.4023 8.45243 14.9385 8.10846 14.5966C7.7645 14.2546 7.29798 14.0625 6.81154 14.0625H5.50079ZM6.81154 16.1469H6.28661V15.625H6.81154C6.88116 15.625 6.94791 15.6525 6.99714 15.7014C7.04636 15.7504 7.07401 15.8167 7.07401 15.8859C7.07401 15.9551 7.04636 16.0215 6.99714 16.0704C6.94791 16.1194 6.88116 16.1469 6.81154 16.1469ZM14.1449 14.8422C14.1453 14.6353 14.2283 14.4369 14.3756 14.2908C14.5229 14.1446 14.7226 14.0625 14.9307 14.0625H16.4992C16.7076 14.0625 16.9075 14.1448 17.0549 14.2913C17.2022 14.4378 17.285 14.6365 17.285 14.8438C17.285 15.051 17.2022 15.2497 17.0549 15.3962C16.9075 15.5427 16.7076 15.625 16.4992 15.625H15.7165V16.1484H16.4992C16.7076 16.1484 16.9075 16.2307 17.0549 16.3773C17.2022 16.5238 17.285 16.7225 17.285 16.9297C17.285 17.1369 17.2022 17.3356 17.0549 17.4821C16.9075 17.6286 16.7076 17.7109 16.4992 17.7109H15.7165V17.9672C15.7167 18.0698 15.6966 18.1714 15.6573 18.2663C15.618 18.3611 15.5603 18.4474 15.4875 18.5201C15.3404 18.6669 15.1407 18.7496 14.9323 18.75C14.7239 18.7504 14.5238 18.6685 14.3762 18.5223C14.2285 18.3761 14.1453 18.1775 14.1449 17.9703V16.9281L14.148 14.8422H14.1449ZM10.2157 14.0625C10.0073 14.0625 9.80745 14.1448 9.66008 14.2913C9.51271 14.4378 9.42992 14.6365 9.42992 14.8438V17.9688C9.42992 18.176 9.51271 18.3747 9.66008 18.5212C9.80745 18.6677 10.0073 18.75 10.2157 18.75H11.0047C11.63 18.75 12.2296 18.5031 12.6717 18.0635C13.1138 17.624 13.3622 17.0279 13.3622 16.4062C13.3622 15.7846 13.1138 15.1885 12.6717 14.749C12.2296 14.3094 11.63 14.0625 11.0047 14.0625H10.2157ZM11.0016 17.1875V15.625H11.0047C11.2131 15.625 11.413 15.7073 11.5604 15.8538C11.7078 16.0003 11.7905 16.199 11.7905 16.4062C11.7905 16.6135 11.7078 16.8122 11.5604 16.9587C11.413 17.1052 11.2131 17.1875 11.0047 17.1875H11.0016ZM11.0047 7.03125V0H3.92913C3.30389 0 2.70426 0.24693 2.26214 0.686469C1.82003 1.12601 1.57165 1.72215 1.57165 2.34375V11.0656C1.11207 11.2272 0.714164 11.5264 0.432702 11.922C0.151241 12.3177 6.94033e-05 12.7904 0 13.275V19.5297C6.94033e-05 20.0143 0.151241 20.487 0.432702 20.8827C0.714164 21.2783 1.11207 21.5775 1.57165 21.7391V22.6562C1.57165 23.2779 1.82003 23.874 2.26214 24.3135C2.70426 24.7531 3.30389 25 3.92913 25H18.074C18.6993 25 19.2989 24.7531 19.741 24.3135C20.1831 23.874 20.4315 23.2779 20.4315 22.6562V21.7391C20.8905 21.577 21.2877 21.2776 21.5686 20.882C21.8494 20.4863 22.0002 20.0139 22 19.5297V13.275C22.0002 12.7908 21.8494 12.3184 21.5686 11.9227C21.2877 11.5271 20.8905 11.2277 20.4315 11.0656V9.375H13.3591C12.7338 9.375 12.1342 9.12807 11.6921 8.68853C11.2499 8.24899 11.0016 7.65285 11.0016 7.03125H11.0047ZM2.36062 12.4938H19.6441C19.8525 12.4938 20.0524 12.5761 20.1998 12.7226C20.3471 12.8691 20.4299 13.0678 20.4299 13.275V19.5297C20.4299 19.7369 20.3471 19.9356 20.1998 20.0821C20.0524 20.2286 19.8525 20.3109 19.6441 20.3109H2.36062C2.15221 20.3109 1.95233 20.2286 1.80496 20.0821C1.65759 19.9356 1.5748 19.7369 1.5748 19.5297V13.275C1.5748 13.0678 1.65759 12.8691 1.80496 12.7226C1.95233 12.5761 2.15221 12.4938 2.36062 12.4938ZM12.5732 7.03125V0.390625L20.0386 7.8125H13.3591C13.1506 7.8125 12.9508 7.73019 12.8034 7.58368C12.656 7.43716 12.5732 7.23845 12.5732 7.03125Z" fill="white"/>
</svg>
