<svg width="18" height="25" viewBox="0 0 18 25" fill="none" xmlns="http://www.w3.org/2000/svg">
<path d="M2.25 25C1.63125 25 1.10138 24.7667 0.660377 24.3C0.219377 23.8333 -0.00074809 23.273 1.91002e-06 22.619V10.7143C1.91002e-06 10.0595 0.220502 9.49881 0.661502 9.03214C1.1025 8.56548 1.632 8.33254 2.25 8.33333H3.375V5.95238C3.375 4.30556 3.92363 2.90159 5.02088 1.74048C6.11813 0.579366 7.4445 -0.000792838 9 8.13167e-07C10.5562 8.13167e-07 11.883 0.580556 12.9802 1.74167C14.0775 2.90278 14.6257 4.30635 14.625 5.95238V8.33333H15.75C16.3687 8.33333 16.8986 8.56667 17.3396 9.03333C17.7806 9.5 18.0007 10.0603 18 10.7143V22.619C18 23.2738 17.7795 23.8345 17.3385 24.3012C16.8975 24.7679 16.368 25.0008 15.75 25H2.25ZM2.25 22.619H15.75V10.7143H2.25V22.619ZM9 19.0476C9.61875 19.0476 10.1486 18.8143 10.5896 18.3476C11.0306 17.881 11.2507 17.3206 11.25 16.6667C11.25 16.0119 11.0295 15.4512 10.5885 14.9845C10.1475 14.5179 9.618 14.2849 9 14.2857C8.38125 14.2857 7.85138 14.519 7.41038 14.9857C6.96938 15.4524 6.74925 16.0127 6.75 16.6667C6.75 17.3214 6.9705 17.8821 7.4115 18.3488C7.8525 18.8155 8.382 19.0484 9 19.0476ZM5.625 8.33333H12.375V5.95238C12.375 4.96032 12.0469 4.11706 11.3906 3.42262C10.7344 2.72818 9.9375 2.38095 9 2.38095C8.0625 2.38095 7.26563 2.72818 6.60938 3.42262C5.95313 4.11706 5.625 4.96032 5.625 5.95238V8.33333Z" fill="white"/>
</svg>
