<svg width="30" height="30" viewBox="0 0 30 30" fill="none" xmlns="http://www.w3.org/2000/svg">
<path fill-rule="evenodd" clip-rule="evenodd" d="M27.6994 6.53452L26.2369 6.18952L22.2844 10.1195L20.0456 7.83952L23.9006 3.79514L23.5631 2.31014C22.7485 2.03761 21.8964 1.89339 21.0375 1.88264C20.1005 1.86823 19.1705 2.04695 18.3056 2.40764C17.4705 2.78566 16.7156 3.32032 16.0819 3.98264C15.3764 4.65092 14.8177 5.45866 14.4412 6.35452C13.7165 8.13742 13.7165 10.1329 14.4412 11.9158C10.5323 15.7614 6.67386 19.658 2.86687 23.6045C2.47312 24.1201 2.28562 24.7633 2.33437 25.4101C2.37279 26.1059 2.68568 26.758 3.20437 27.2233C3.43687 27.4764 3.71437 27.6864 4.02374 27.8383C4.34249 27.9789 4.68562 28.0595 5.03249 28.0764C5.62499 28.0651 6.19312 27.8401 6.63374 27.4445C9.53624 24.7126 15.0975 19.1008 18.2569 15.812C19.1137 16.1758 20.0344 16.3633 20.9644 16.3614C21.9005 16.3607 22.827 16.1723 23.6891 15.8074C24.5513 15.4425 25.3315 14.9085 25.9837 14.237C27.3235 12.8706 28.0718 11.0319 28.0669 9.11827C28.0885 8.24259 27.9643 7.36942 27.6994 6.53452ZM5.49937 26.1151C5.4272 26.1792 5.3402 26.2243 5.24624 26.2464C5.1538 26.2624 5.0593 26.2624 4.96687 26.2464C4.86995 26.2316 4.77763 26.1951 4.69687 26.1395C4.6102 26.0888 4.53691 26.0181 4.48312 25.9333C4.22062 25.6651 3.97499 25.1551 4.22062 24.8683C6.78937 22.1364 12.0787 16.7964 15.3862 13.532C15.5737 13.7795 15.78 14.0158 16.0012 14.237C16.2225 14.4676 16.4606 14.6814 16.7137 14.8764C13.515 18.1576 8.29687 23.4339 5.49937 26.1151ZM26.3456 9.11827C26.3494 10.5526 25.7906 11.9308 24.7856 12.9583C23.7827 13.9421 22.4339 14.4932 21.0291 14.4932C19.6242 14.4932 18.2754 13.9421 17.2725 12.9583C16.5375 12.1912 16.0354 11.2312 15.8246 10.1899C15.6138 9.14865 15.703 8.06894 16.0819 7.07639C16.334 6.40089 16.7252 5.78584 17.23 5.27101C17.7348 4.75618 18.3421 4.35303 19.0125 4.08764C19.649 3.82122 20.3324 3.68479 21.0225 3.68639H21.4987L18.0919 7.19827V8.50327L21.645 12.0395H22.8825L26.3456 8.63452V9.11827ZM6.07499 12.5401H8.94562L10.2675 13.8845L11.5387 12.6208L10.2919 11.3495V11.2689L10.3987 8.17702L9.98624 7.35764L4.62374 3.82889L3.51562 3.95264L1.95749 5.54452L1.83374 6.66764L5.27999 12.1389L6.07499 12.5401ZM4.30312 5.73014L8.64187 8.58764L8.56874 10.6933H6.55124L3.75374 6.26452L4.30312 5.73014ZM17.625 18.7801L18.8887 17.5183L24.7125 23.4901C25.203 24.0057 25.4766 24.6901 25.4766 25.4017C25.4766 26.1133 25.203 26.7977 24.7125 27.3133C24.3436 27.6919 23.8693 27.9508 23.3513 28.0561C22.8333 28.1615 22.2956 28.1084 21.8081 27.9039C21.497 27.7659 21.218 27.5648 20.9887 27.3133L15.0975 21.3076L16.3706 20.0364L22.2431 26.0251C22.3221 26.1122 22.4203 26.1797 22.53 26.222C22.7458 26.3097 22.9873 26.3097 23.2031 26.222C23.3128 26.1796 23.411 26.1122 23.49 26.0251C23.5721 25.9438 23.636 25.8461 23.6775 25.7383C23.7205 25.6282 23.7434 25.5114 23.745 25.3933C23.7431 25.2753 23.7209 25.1586 23.6794 25.0483C23.6378 24.9405 23.5739 24.8427 23.4919 24.7614L17.625 18.7801Z" fill="white"/>
</svg>
