<svg width="19" height="20" viewBox="0 0 19 20" fill="none" xmlns="http://www.w3.org/2000/svg">
<g clip-path="url(#clip0_613_7)">
<path d="M9.69571 1.03662C4.76254 1.03662 0.763532 5.03563 0.763532 9.9688C0.763532 14.902 4.76254 18.901 9.69571 18.901C14.6289 18.901 18.6279 14.902 18.6279 9.9688C18.6279 5.03563 14.6289 1.03662 9.69571 1.03662ZM13.3291 8.35356C13.3328 8.42986 13.3337 8.50615 13.3337 8.58059C13.3337 10.9067 11.5649 13.5873 8.3289 13.5873C7.37268 13.5888 6.43636 13.3142 5.6325 12.7964C5.76927 12.8131 5.90977 12.8196 6.05212 12.8196C6.87649 12.8196 7.63479 12.5396 8.23678 12.0669C7.86993 12.0597 7.51446 11.9382 7.21992 11.7194C6.92538 11.5006 6.70645 11.1953 6.59364 10.8462C6.85709 10.8963 7.1285 10.8858 7.3873 10.8155C6.98912 10.735 6.63104 10.5192 6.37378 10.2048C6.11653 9.89041 5.97593 9.49671 5.97583 9.09046V9.06907C6.21309 9.20026 6.48478 9.28027 6.77321 9.28958C6.39992 9.04109 6.13566 8.65937 6.03449 8.22249C5.93331 7.78562 6.00286 7.3266 6.22891 6.9393C6.67082 7.48267 7.22192 7.92719 7.84653 8.24406C8.47114 8.56093 9.15533 8.7431 9.85481 8.77877C9.76588 8.4013 9.80416 8.00502 9.96368 7.65155C10.1232 7.29808 10.395 7.00721 10.7369 6.82417C11.0788 6.64113 11.4716 6.57617 11.8542 6.63939C12.2368 6.70262 12.5878 6.89048 12.8527 7.17377C13.2464 7.09587 13.624 6.95145 13.9692 6.7467C13.838 7.15436 13.5632 7.50051 13.196 7.72086C13.5448 7.67886 13.8853 7.58509 14.2065 7.44266C13.9706 7.79613 13.6734 8.10461 13.3291 8.35356Z" fill="white"/>
</g>
<defs>
<clipPath id="clip0_613_7">
<rect width="18.6087" height="18.6087" fill="white" transform="translate(0.391357 0.664551)"/>
</clipPath>
</defs>
</svg>
