<svg width="23" height="29" viewBox="0 0 23 29" fill="none" xmlns="http://www.w3.org/2000/svg">
<path d="M11.5 29H11.1406C11.0208 29 10.913 28.9756 10.8172 28.9267C7.67864 27.9246 5.09115 25.9384 3.05469 22.9683C1.01823 19.9981 0 16.7171 0 13.1252V6.19595C0 5.58491 0.173937 5.03498 0.521812 4.54614C0.869687 4.05731 1.31867 3.70291 1.86875 3.48293L10.4937 0.183312C10.8292 0.0611041 11.1646 0 11.5 0C11.8354 0 12.1708 0.0611041 12.5062 0.183312L21.1312 3.48293C21.6823 3.70291 22.1317 4.05731 22.4796 4.54614C22.8275 5.03498 23.001 5.58491 23 6.19595V13.1252C23 16.7181 21.9818 19.9996 19.9453 22.9698C17.9089 25.9399 15.3214 27.9255 12.1828 28.9267C12.063 28.9756 11.8354 29 11.5 29ZM11.5 26.0303C13.9917 25.2238 16.0521 23.6106 17.6812 21.1909C19.3104 18.7712 20.125 16.0826 20.125 13.1252V6.19595L11.5 2.89633L2.875 6.19595V13.1252C2.875 16.0826 3.68958 18.7712 5.31875 21.1909C6.94792 23.6106 9.00833 25.2238 11.5 26.0303Z" fill="white"/>
</svg>
