<svg width="19" height="20" viewBox="0 0 19 20" fill="none" xmlns="http://www.w3.org/2000/svg">
<g clip-path="url(#clip0_613_5)">
<path d="M10.9449 9.81341L8.85513 8.83832C8.67276 8.75365 8.52296 8.84855 8.52296 9.05046V10.8871C8.52296 11.089 8.67276 11.1839 8.85513 11.0993L10.944 10.1242C11.1272 10.0386 11.1272 9.89901 10.9449 9.81341ZM9.4534 1.03662C4.52023 1.03662 0.521221 5.03563 0.521221 9.9688C0.521221 14.902 4.52023 18.901 9.4534 18.901C14.3866 18.901 18.3856 14.902 18.3856 9.9688C18.3856 5.03563 14.3866 1.03662 9.4534 1.03662ZM9.4534 13.5975C4.88124 13.5975 4.80122 13.1853 4.80122 9.9688C4.80122 6.75228 4.88124 6.3401 9.4534 6.3401C14.0256 6.3401 14.1056 6.75228 14.1056 9.9688C14.1056 13.1853 14.0256 13.5975 9.4534 13.5975Z" fill="white"/>
</g>
<defs>
<clipPath id="clip0_613_5">
<rect width="18.6087" height="18.6087" fill="white" transform="translate(0.149048 0.664551)"/>
</clipPath>
</defs>
</svg>
